<svg width="500" height="500" viewBox="0 0 500 500" fill="none" xmlns="http://www.w3.org/2000/svg">
<path d="M245.261 92.7202C262.239 92.4908 278.816 97.8629 292.413 107.999C295.979 110.702 299.153 114.798 303.174 116.223C307.531 117.742 312.206 118.364 316.724 119.291C337.173 123.49 359.321 130.673 366.635 152.388C338.94 152.101 286.897 147.265 283.121 187.113C282.413 194.584 285.278 207.339 286.52 215.19C287.889 223.639 288.306 232.215 287.765 240.756C285.2 276.953 264.65 308.064 241.983 334.984C231.54 347.529 221.97 359.415 214.731 374.085C200.5 402.93 207.209 436.328 238.052 450.693C211.132 450.936 190.011 444.774 168.056 428.894C154.678 419.016 145.845 407.742 137.57 393.578C129.741 405.036 122.882 417.122 117.066 429.713C115.663 427.656 114.356 425.535 113.15 423.358C98.7664 397.223 99.0389 366.818 107.14 338.827C103.52 340.289 99.8838 341.712 96.2312 343.094C94.2491 309.068 105.118 257.31 124.771 228.83C141.749 204.37 167.796 187.644 197.164 182.343C182.814 181.365 172.145 184.3 158.817 188.551C163.457 181.917 167.707 175.562 171.504 168.39C177.042 157.928 181.15 148.602 188.009 138.845C182.571 140.312 179.051 141.838 173.938 144.051C177.106 135.969 184.73 125.233 190.697 118.787C205.792 102.478 223.078 93.7302 245.261 92.7202ZM252.524 120.989C254.782 125.518 258.636 129.088 263.468 130.725C267.57 132.118 272.064 131.823 275.946 129.906C277.143 129.301 278.278 128.584 279.339 127.762C281.36 125.89 282.117 124.973 283.829 122.799C274.578 122.152 261.666 121.152 252.524 120.989Z" fill="url(#paint0_linear_3351_22760)"/>
<path d="M162.987 50.5684C163.615 50.4794 165.541 50.4307 166.208 50.4307C178.528 50.4323 190.871 50.4396 203.19 50.4375L279.018 50.4393L312.692 50.4273C325.563 50.4095 335.768 48.6578 345.649 58.7158C356.151 69.4062 366.416 80.3113 376.785 91.1262L389.912 104.768C398.887 114.081 403.846 118.332 403.896 132.323C403.961 150.657 403.908 169.016 403.908 187.352V295.823L403.896 344.844C403.899 351.356 404.329 365.482 403.423 371.223C402.236 378.699 398.717 385.611 393.366 390.976C381.534 402.872 370.546 401.692 355.181 401.689L324.941 401.677L215.553 401.708C215.569 395.849 216.443 391.811 217.817 386.217L349.563 386.196C360.718 386.193 373.925 388.3 382.016 379.333C388.552 372.089 387.86 364.182 387.841 355.2L387.804 336.651L387.816 276.449L387.77 184.045L387.785 152.428C387.788 146.529 387.767 140.575 387.702 134.686C387.603 125.103 382.31 121.327 376.133 114.936L359.076 97.2985L342.075 79.4301C339.222 76.438 336.393 73.3642 333.4 70.5105C329.492 66.7831 324.941 66.2114 319.806 66.2145C313.923 66.2179 308.036 66.2062 302.153 66.2071L258.801 66.2238L197.642 66.2367C187.449 66.2373 177.137 66.0919 167.035 66.2949C156.793 66.5007 147.723 75.5195 147.399 85.6508C147.161 93.1052 147.355 100.755 147.356 108.231L147.347 152.983C147.356 158.284 147.823 168.19 146.604 172.98C144.082 182.893 137.562 191.985 130.883 199.517L130.867 118.37L130.867 95.93C130.868 91.1209 130.656 84.5983 131.4 79.9867C132.274 74.4137 134.557 69.1542 138.035 64.7034C144.39 56.4608 152.74 51.9656 162.987 50.5684Z" fill="url(#paint1_linear_3351_22760)"/>
<path d="M309.392 271.133C326.106 270.576 343.344 271.506 360.101 271.065C361.772 271.02 366.125 271.117 367.654 271.754C371.157 273.206 370.253 283.823 369.359 286.637C368.955 287.903 366.495 288.714 365.521 288.906C358.642 289.044 310.385 289.567 307.493 288.264C306.54 287.833 305.881 286.618 305.585 285.661C304.842 283.245 304.734 275.387 306.007 273.268C306.799 271.959 307.968 271.5 309.392 271.133Z" fill="#1D2024"/>
<path d="M308.512 230.283C318.851 229.706 331.1 230.418 341.667 230.165C349.198 229.985 357.839 230.118 365.357 230.369C366.654 230.412 368.419 230.796 369.169 232.082C370.73 234.75 370.052 241.502 369.842 244.535C369.734 246.074 367.728 247.292 366.62 247.922C361.691 248.386 310.592 248.355 307.975 247.602C307.132 247.359 306.413 246.523 305.997 245.776C304.805 243.637 304.812 235.655 305.521 233.314C305.997 231.748 307.151 231.041 308.512 230.283Z" fill="#1D2024"/>
<path d="M317.837 311.969C325.559 310.955 332.65 316.381 333.688 324.1C334.727 331.819 329.326 338.925 321.61 339.988C313.86 341.058 306.714 335.626 305.669 327.873C304.624 320.117 310.078 312.99 317.837 311.969Z" fill="#1D2024"/>
<defs>
<linearGradient id="paint0_linear_3351_22760" x1="231.318" y1="92.7134" x2="231.318" y2="450.7" gradientUnits="userSpaceOnUse">
<stop stop-color="#1D2024"/>
<stop offset="1" stop-color="#2E0066"/>
</linearGradient>
<linearGradient id="paint1_linear_3351_22760" x1="267.42" y1="50.2998" x2="267.42" y2="401.723" gradientUnits="userSpaceOnUse">
<stop stop-color="#1D2024"/>
<stop offset="1" stop-color="#2D0065"/>
</linearGradient>
</defs>
</svg>
