<svg width="1024" height="1024" viewBox="0 0 1024 1024" fill="none" xmlns="http://www.w3.org/2000/svg">
<path d="M502.615 200.014C536.241 199.56 569.07 210.199 596 230.273C603.063 235.628 609.349 243.741 617.312 246.563C625.941 249.571 635.201 250.802 644.149 252.639C684.648 260.954 728.513 275.181 743 318.188C688.149 317.619 585.076 308.042 577.597 386.962C576.195 401.759 581.869 427.018 584.329 442.567C587.04 459.302 587.867 476.286 586.796 493.203C581.716 564.891 541.015 626.506 496.122 679.821C475.44 704.667 456.487 728.208 442.15 757.262C413.965 814.389 427.252 880.536 488.338 908.986C435.022 909.468 393.192 897.264 349.71 865.813C323.213 846.249 305.719 823.922 289.33 795.868C273.824 818.561 260.241 842.499 248.722 867.436C245.944 863.362 243.356 859.16 240.967 854.848C212.479 803.089 213.018 742.87 229.063 687.432C221.894 690.329 214.692 693.147 207.458 695.885C203.532 628.495 225.058 525.988 263.982 469.581C297.608 421.138 349.192 388.013 407.356 377.514C378.937 375.577 357.808 381.389 331.411 389.809C340.601 376.67 349.018 364.084 356.537 349.88C367.507 329.159 375.642 310.69 389.225 291.366C378.456 294.271 371.484 297.291 361.357 301.676C367.631 285.668 382.734 264.407 394.551 251.64C424.446 219.342 458.68 202.015 502.615 200.014ZM517 256C521.471 264.97 529.105 272.042 538.674 275.284C546.799 278.042 555.698 277.458 563.388 273.661C565.758 272.464 568.006 271.043 570.106 269.416C574.111 265.708 575.61 263.891 579 259.586C560.679 258.304 535.106 256.323 517 256Z" fill="url(#paint0_linear_3351_22769)"/>
<path d="M339.669 116.532C340.912 116.356 344.726 116.259 346.046 116.259C370.447 116.262 394.893 116.277 419.291 116.273L569.469 116.276L636.162 116.253C661.652 116.217 681.865 112.748 701.434 132.668C722.234 153.841 742.563 175.438 763.1 196.857L789.098 223.876C806.874 242.32 816.695 250.739 816.793 278.448C816.921 314.759 816.817 351.121 816.817 387.435V602.264L816.793 699.351C816.799 712.247 817.65 740.224 815.856 751.595C813.505 766.4 806.537 780.089 795.938 790.716C772.505 814.276 750.743 811.939 720.311 811.933L660.422 811.909L443.777 811.97C443.808 800.367 445.538 792.37 448.261 781.291L709.186 781.248C731.278 781.242 757.436 785.415 773.46 767.657C786.404 753.309 785.032 737.649 784.996 719.86L784.922 683.124L784.947 563.892L784.855 380.885L784.886 318.266C784.892 306.583 784.849 294.792 784.72 283.128C784.524 264.149 774.042 256.671 761.808 244.013L728.027 209.082L694.356 173.693C688.704 167.767 683.101 161.68 677.174 156.028C669.435 148.646 660.422 147.513 650.251 147.519C638.599 147.526 626.94 147.503 615.288 147.505L529.43 147.538L408.303 147.563C388.116 147.565 367.693 147.277 347.685 147.679C327.402 148.086 309.436 165.948 308.797 186.013C308.325 200.777 308.709 215.927 308.711 230.734L308.694 319.366C308.711 329.864 309.635 349.484 307.221 358.97C302.226 378.603 289.314 396.61 276.085 411.528L276.055 250.814L276.054 206.372C276.056 196.847 275.636 183.929 277.11 174.795C278.84 163.758 283.362 153.342 290.25 144.527C302.836 128.202 319.374 119.299 339.669 116.532Z" fill="url(#paint1_linear_3351_22769)"/>
<path d="M629.63 553.363C662.731 552.261 696.871 554.102 730.058 553.23C733.368 553.139 741.99 553.333 745.018 554.593C751.955 557.47 750.166 578.496 748.395 584.069C747.595 586.577 742.722 588.183 740.793 588.564C727.17 588.837 631.596 589.873 625.868 587.292C623.981 586.438 622.675 584.033 622.088 582.137C620.617 577.352 620.403 561.79 622.925 557.592C624.494 554.999 626.809 554.09 629.63 553.363Z" fill="#1D2024"/>
<path d="M627.886 472.46C648.362 471.317 672.622 472.727 693.551 472.226C708.465 471.87 725.58 472.134 740.469 472.63C743.036 472.715 746.533 473.476 748.018 476.022C751.111 481.307 749.766 494.68 749.351 500.686C749.137 503.735 745.164 506.146 742.969 507.394C733.208 508.313 632.006 508.252 626.822 506.761C625.154 506.28 623.73 504.624 622.904 503.145C620.545 498.908 620.557 483.1 621.963 478.463C622.904 475.361 625.19 473.961 627.886 472.46Z" fill="#1D2024"/>
<path d="M646.352 634.241C661.647 632.233 675.689 642.978 677.747 658.266C679.804 673.554 669.107 687.627 653.825 689.734C638.476 691.852 624.324 681.095 622.254 665.739C620.184 650.378 630.985 636.262 646.352 634.241Z" fill="#1D2024"/>
<defs>
<linearGradient id="paint0_linear_3351_22769" x1="475" y1="200" x2="475" y2="909" gradientUnits="userSpaceOnUse">
<stop stop-color="#1D2024"/>
<stop offset="1" stop-color="#2E0066"/>
</linearGradient>
<linearGradient id="paint1_linear_3351_22769" x1="546.5" y1="116" x2="546.5" y2="812" gradientUnits="userSpaceOnUse">
<stop stop-color="#1D2024"/>
<stop offset="1" stop-color="#2D0065"/>
</linearGradient>
</defs>
</svg>
